<mxfile host="app.diagrams.net" modified="2021-08-23T09:11:17.711Z" agent="5.0 (Windows NT 10.0; Win64; x64) AppleWebKit/537.36 (KHTML, like Gecko) Chrome/92.0.4515.159 Safari/537.36" etag="HIDhqkTVTP78PLi4aW2H" version="14.9.8" type="github">
  <diagram id="B3ldLibSKhbJkDmWhpoI" name="第 1 页">
    <mxGraphModel dx="3551" dy="699" grid="0" gridSize="10" guides="1" tooltips="1" connect="1" arrows="1" fold="1" page="1" pageScale="1" pageWidth="1169" pageHeight="827" math="0" shadow="0">
      <root>
        <mxCell id="0" />
        <mxCell id="1" parent="0" />
        <mxCell id="vAc2I8jKLy1ohs5-Qj62-7" value="" style="shape=cube;whiteSpace=wrap;html=1;boundedLbl=1;backgroundOutline=1;darkOpacity=0.00;darkOpacity2=0.0;dashed=1;shadow=0;sketch=0;opacity=70;size=41;strokeWidth=1;fillColor=none;strokeColor=#CCCCCC;" vertex="1" parent="1">
          <mxGeometry x="-2207" y="266" width="340" height="260" as="geometry" />
        </mxCell>
        <mxCell id="vAc2I8jKLy1ohs5-Qj62-1" value="" style="shape=cube;whiteSpace=wrap;html=1;boundedLbl=1;backgroundOutline=1;darkOpacity=0.05;darkOpacity2=0.1;rotation=0;size=48;" vertex="1" parent="1">
          <mxGeometry x="-1813" y="318.00000000000006" width="76" height="210.03" as="geometry" />
        </mxCell>
        <mxCell id="vAc2I8jKLy1ohs5-Qj62-3" value="" style="shape=cube;whiteSpace=wrap;html=1;boundedLbl=1;backgroundOutline=1;darkOpacity=0.05;darkOpacity2=0.1;rotation=0;size=46;" vertex="1" parent="1">
          <mxGeometry x="-2055" y="344.51" width="79.49" height="79.44" as="geometry" />
        </mxCell>
        <mxCell id="vAc2I8jKLy1ohs5-Qj62-4" value="" style="shape=cube;whiteSpace=wrap;html=1;boundedLbl=1;backgroundOutline=1;darkOpacity=0.05;darkOpacity2=0.1;rotation=0;size=13;" vertex="1" parent="1">
          <mxGeometry x="-2009" y="450.03" width="42.97" height="43.97" as="geometry" />
        </mxCell>
        <mxCell id="vAc2I8jKLy1ohs5-Qj62-8" value="" style="shape=cube;whiteSpace=wrap;html=1;boundedLbl=1;backgroundOutline=1;darkOpacity=0.05;darkOpacity2=0.1;rotation=0;size=35;" vertex="1" parent="1">
          <mxGeometry x="-1491" y="423.95" width="56" height="99" as="geometry" />
        </mxCell>
        <mxCell id="vAc2I8jKLy1ohs5-Qj62-9" value="" style="shape=cube;whiteSpace=wrap;html=1;boundedLbl=1;backgroundOutline=1;darkOpacity=0.05;darkOpacity2=0.1;rotation=0;size=48;" vertex="1" parent="1">
          <mxGeometry x="-1706" y="345.94" width="70" height="182" as="geometry" />
        </mxCell>
        <mxCell id="vAc2I8jKLy1ohs5-Qj62-10" value="" style="shape=cube;whiteSpace=wrap;html=1;boundedLbl=1;backgroundOutline=1;darkOpacity=0.05;darkOpacity2=0.1;rotation=0;size=41;" vertex="1" parent="1">
          <mxGeometry x="-1592" y="381.95" width="61" height="146.08" as="geometry" />
        </mxCell>
        <mxCell id="vAc2I8jKLy1ohs5-Qj62-11" value="&lt;font style=&quot;font-size: 18px&quot; face=&quot;Times New Roman&quot;&gt;检测层&lt;/font&gt;" style="rounded=0;whiteSpace=wrap;html=1;shadow=0;sketch=0;strokeWidth=1;fillColor=none;gradientColor=none;opacity=70;rotation=90;strokeColor=#1A1A1A;" vertex="1" parent="1">
          <mxGeometry x="-1487.5" y="409.5" width="339" height="52" as="geometry" />
        </mxCell>
        <mxCell id="vAc2I8jKLy1ohs5-Qj62-16" value="" style="edgeStyle=segmentEdgeStyle;endArrow=classic;html=1;" edge="1" parent="1">
          <mxGeometry width="50" height="50" relative="1" as="geometry">
            <mxPoint x="-1747" y="559" as="sourcePoint" />
            <mxPoint x="-1516" y="597" as="targetPoint" />
            <Array as="points">
              <mxPoint x="-1747" y="597" />
            </Array>
          </mxGeometry>
        </mxCell>
        <mxCell id="vAc2I8jKLy1ohs5-Qj62-18" value="注意力模块" style="rounded=0;whiteSpace=wrap;html=1;shadow=0;sketch=0;strokeWidth=1;fillColor=none;gradientColor=none;opacity=70;strokeColor=#1A1A1A;" vertex="1" parent="1">
          <mxGeometry x="-1870" y="594" width="101" height="23" as="geometry" />
        </mxCell>
        <mxCell id="vAc2I8jKLy1ohs5-Qj62-20" value="特征融合" style="rounded=0;whiteSpace=wrap;html=1;shadow=0;sketch=0;strokeWidth=1;fillColor=none;gradientColor=none;opacity=70;strokeColor=#1A1A1A;" vertex="1" parent="1">
          <mxGeometry x="-1516" y="585" width="111" height="26" as="geometry" />
        </mxCell>
        <mxCell id="vAc2I8jKLy1ohs5-Qj62-21" value="" style="edgeStyle=segmentEdgeStyle;endArrow=classic;html=1;" edge="1" parent="1">
          <mxGeometry width="50" height="50" relative="1" as="geometry">
            <mxPoint x="-1648" y="558" as="sourcePoint" />
            <mxPoint x="-1516" y="588" as="targetPoint" />
            <Array as="points">
              <mxPoint x="-1648" y="588" />
            </Array>
          </mxGeometry>
        </mxCell>
        <mxCell id="vAc2I8jKLy1ohs5-Qj62-22" value="" style="edgeStyle=segmentEdgeStyle;endArrow=classic;html=1;" edge="1" parent="1">
          <mxGeometry width="50" height="50" relative="1" as="geometry">
            <mxPoint x="-1769" y="606" as="sourcePoint" />
            <mxPoint x="-1516" y="606" as="targetPoint" />
            <Array as="points">
              <mxPoint x="-1747" y="606" />
            </Array>
          </mxGeometry>
        </mxCell>
        <mxCell id="vAc2I8jKLy1ohs5-Qj62-24" value="" style="endArrow=classic;html=1;" edge="1" parent="1">
          <mxGeometry width="50" height="50" relative="1" as="geometry">
            <mxPoint x="-1405" y="597.92" as="sourcePoint" />
            <mxPoint x="-1345" y="597.92" as="targetPoint" />
          </mxGeometry>
        </mxCell>
        <mxCell id="vAc2I8jKLy1ohs5-Qj62-25" value="特征融合" style="rounded=0;whiteSpace=wrap;html=1;shadow=0;sketch=0;strokeWidth=1;fillColor=none;gradientColor=none;opacity=70;strokeColor=#1A1A1A;" vertex="1" parent="1">
          <mxGeometry x="-1516" y="270" width="111" height="26" as="geometry" />
        </mxCell>
        <mxCell id="vAc2I8jKLy1ohs5-Qj62-26" value="注意力模块" style="rounded=0;whiteSpace=wrap;html=1;shadow=0;sketch=0;strokeWidth=1;fillColor=none;gradientColor=none;opacity=70;strokeColor=#1A1A1A;" vertex="1" parent="1">
          <mxGeometry x="-1870" y="255" width="111" height="26" as="geometry" />
        </mxCell>
        <mxCell id="vAc2I8jKLy1ohs5-Qj62-28" value="" style="endArrow=classic;html=1;" edge="1" parent="1">
          <mxGeometry width="50" height="50" relative="1" as="geometry">
            <mxPoint x="-1405" y="283.00000000000006" as="sourcePoint" />
            <mxPoint x="-1345" y="283.00000000000006" as="targetPoint" />
          </mxGeometry>
        </mxCell>
        <mxCell id="vAc2I8jKLy1ohs5-Qj62-29" value="" style="edgeStyle=segmentEdgeStyle;endArrow=classic;html=1;" edge="1" parent="1">
          <mxGeometry width="50" height="50" relative="1" as="geometry">
            <mxPoint x="-1795" y="317" as="sourcePoint" />
            <mxPoint x="-1517" y="283" as="targetPoint" />
            <Array as="points">
              <mxPoint x="-1795" y="283" />
            </Array>
          </mxGeometry>
        </mxCell>
        <mxCell id="vAc2I8jKLy1ohs5-Qj62-30" value="" style="edgeStyle=segmentEdgeStyle;endArrow=classic;html=1;" edge="1" parent="1">
          <mxGeometry width="50" height="50" relative="1" as="geometry">
            <mxPoint x="-1694" y="331" as="sourcePoint" />
            <mxPoint x="-1517" y="292" as="targetPoint" />
            <Array as="points">
              <mxPoint x="-1694" y="331" />
              <mxPoint x="-1694" y="292" />
            </Array>
          </mxGeometry>
        </mxCell>
        <mxCell id="vAc2I8jKLy1ohs5-Qj62-33" value="卷积层3&lt;br&gt;38*38*512" style="text;html=1;strokeColor=none;fillColor=none;align=center;verticalAlign=middle;whiteSpace=wrap;rounded=0;shadow=0;sketch=0;opacity=70;" vertex="1" parent="1">
          <mxGeometry x="-1770" y="533" width="40" height="20" as="geometry" />
        </mxCell>
        <mxCell id="vAc2I8jKLy1ohs5-Qj62-36" value="" style="edgeStyle=segmentEdgeStyle;endArrow=classic;html=1;exitX=1.003;exitY=0.733;exitDx=0;exitDy=0;exitPerimeter=0;" edge="1" parent="1" source="vAc2I8jKLy1ohs5-Qj62-26">
          <mxGeometry width="50" height="50" relative="1" as="geometry">
            <mxPoint x="-1770" y="274" as="sourcePoint" />
            <mxPoint x="-1517" y="274" as="targetPoint" />
            <Array as="points">
              <mxPoint x="-1748" y="274" />
            </Array>
          </mxGeometry>
        </mxCell>
        <mxCell id="vAc2I8jKLy1ohs5-Qj62-37" value="" style="edgeStyle=segmentEdgeStyle;endArrow=classic;html=1;exitX=0.77;exitY=1.008;exitDx=0;exitDy=0;exitPerimeter=0;" edge="1" parent="1" source="vAc2I8jKLy1ohs5-Qj62-7">
          <mxGeometry width="50" height="50" relative="1" as="geometry">
            <mxPoint x="-1946" y="577" as="sourcePoint" />
            <mxPoint x="-1870" y="607" as="targetPoint" />
            <Array as="points">
              <mxPoint x="-1945" y="607" />
            </Array>
          </mxGeometry>
        </mxCell>
        <mxCell id="vAc2I8jKLy1ohs5-Qj62-38" value="" style="edgeStyle=segmentEdgeStyle;endArrow=classic;html=1;entryX=0;entryY=0.5;entryDx=0;entryDy=0;" edge="1" parent="1" target="vAc2I8jKLy1ohs5-Qj62-26">
          <mxGeometry width="50" height="50" relative="1" as="geometry">
            <mxPoint x="-1944.51" y="297.5" as="sourcePoint" />
            <mxPoint x="-1785.51" y="268.5" as="targetPoint" />
            <Array as="points">
              <mxPoint x="-1945" y="268" />
            </Array>
          </mxGeometry>
        </mxCell>
        <mxCell id="vAc2I8jKLy1ohs5-Qj62-39" value="" style="shape=cube;whiteSpace=wrap;html=1;boundedLbl=1;backgroundOutline=1;darkOpacity=0.05;darkOpacity2=0.1;rotation=0;size=24;" vertex="1" parent="1">
          <mxGeometry x="-1408" y="462" width="42" height="65.94" as="geometry" />
        </mxCell>
        <mxCell id="vAc2I8jKLy1ohs5-Qj62-40" value="" style="endArrow=classic;html=1;entryX=0.606;entryY=1.008;entryDx=0;entryDy=0;entryPerimeter=0;exitX=0.654;exitY=0.146;exitDx=0;exitDy=0;exitPerimeter=0;" edge="1" parent="1" source="vAc2I8jKLy1ohs5-Qj62-39" target="vAc2I8jKLy1ohs5-Qj62-11">
          <mxGeometry width="50" height="50" relative="1" as="geometry">
            <mxPoint x="-1382" y="468.7800000000001" as="sourcePoint" />
            <mxPoint x="-1346" y="469" as="targetPoint" />
            <Array as="points" />
          </mxGeometry>
        </mxCell>
        <mxCell id="vAc2I8jKLy1ohs5-Qj62-41" value="" style="endArrow=classic;html=1;entryX=0.51;entryY=1.01;entryDx=0;entryDy=0;entryPerimeter=0;" edge="1" parent="1" target="vAc2I8jKLy1ohs5-Qj62-11">
          <mxGeometry width="50" height="50" relative="1" as="geometry">
            <mxPoint x="-1455" y="439.06000000000006" as="sourcePoint" />
            <mxPoint x="-1345" y="439" as="targetPoint" />
          </mxGeometry>
        </mxCell>
        <mxCell id="vAc2I8jKLy1ohs5-Qj62-42" value="" style="endArrow=classic;html=1;entryX=0.398;entryY=1.016;entryDx=0;entryDy=0;entryPerimeter=0;" edge="1" parent="1" target="vAc2I8jKLy1ohs5-Qj62-11">
          <mxGeometry width="50" height="50" relative="1" as="geometry">
            <mxPoint x="-1553.27" y="400.06000000000006" as="sourcePoint" />
            <mxPoint x="-1515.9979999999998" y="400.00199999999995" as="targetPoint" />
            <Array as="points" />
          </mxGeometry>
        </mxCell>
        <mxCell id="vAc2I8jKLy1ohs5-Qj62-43" value="" style="endArrow=classic;html=1;entryX=0.301;entryY=1.004;entryDx=0;entryDy=0;entryPerimeter=0;" edge="1" parent="1" target="vAc2I8jKLy1ohs5-Qj62-11">
          <mxGeometry width="50" height="50" relative="1" as="geometry">
            <mxPoint x="-1663" y="367.00000000000006" as="sourcePoint" />
            <mxPoint x="-1454.562" y="367.86200000000014" as="targetPoint" />
            <Array as="points" />
          </mxGeometry>
        </mxCell>
        <mxCell id="vAc2I8jKLy1ohs5-Qj62-44" value="" style="endArrow=classic;html=1;" edge="1" parent="1">
          <mxGeometry width="50" height="50" relative="1" as="geometry">
            <mxPoint x="-1764" y="337.08" as="sourcePoint" />
            <mxPoint x="-1346" y="338" as="targetPoint" />
            <Array as="points" />
          </mxGeometry>
        </mxCell>
        <mxCell id="vAc2I8jKLy1ohs5-Qj62-45" value="" style="shape=cube;whiteSpace=wrap;html=1;boundedLbl=1;backgroundOutline=1;darkOpacity=0.05;darkOpacity2=0.1;rotation=0;size=46;" vertex="1" parent="1">
          <mxGeometry x="-1989" y="339" width="79.49" height="79.44" as="geometry" />
        </mxCell>
        <mxCell id="vAc2I8jKLy1ohs5-Qj62-46" value="" style="shape=cube;whiteSpace=wrap;html=1;boundedLbl=1;backgroundOutline=1;darkOpacity=0.05;darkOpacity2=0.1;rotation=0;size=13;" vertex="1" parent="1">
          <mxGeometry x="-1944" y="450.03" width="42.97" height="43.97" as="geometry" />
        </mxCell>
      </root>
    </mxGraphModel>
  </diagram>
</mxfile>
